<?xml version="1.0" encoding="UTF-8" standalone="no"?>
<svg
   xmlns:osb="http://www.openswatchbook.org/uri/2009/osb"
   xmlns:dc="http://purl.org/dc/elements/1.1/"
   xmlns:cc="http://creativecommons.org/ns#"
   xmlns:rdf="http://www.w3.org/1999/02/22-rdf-syntax-ns#"
   xmlns:svg="http://www.w3.org/2000/svg"
   xmlns="http://www.w3.org/2000/svg"
   xmlns:xlink="http://www.w3.org/1999/xlink"
   version="1.1"
   id="svg2"
   height="220"
   width="1200">
  <defs
     id="defs4">
    <linearGradient
       id="linearGradient3767">
      <stop
         style="stop-color:#ffa900;stop-opacity:1;"
         offset="0"
         id="stop3800" />
      <stop
         style="stop-color:#fd0000;stop-opacity:1;"
         offset="1"
         id="stop3775" />
    </linearGradient>
    <linearGradient
       spreadMethod="repeat"
       gradientUnits="userSpaceOnUse"
       y2="298.258"
       x2="83.651718"
       y1="163.12114"
       x1="195.5511"
       id="linearGradient3798"
       xlink:href="#linearGradient3767" />
  </defs>
  <g
     transform="translate(2.5547457,54.766869)"
     id="layer1">
    <g
       id="text3084"
       style="line-height:125%">
      <path
         id="path4169"
         style="fill:#4d4d4d;fill-opacity:1"
         d="m 228.57097,43.364565 c 0,14.62 10.2,24.48 24.82,24.48 9.86,0 18.36,-4.93 25.84,-11.22 l 0.51,0 1.53,9.18 15.98,0 0,-49.47 c 0,-23.2899996 -10.2,-36.04 -31.11,-36.04 -13.26,0 -24.99,5.1 -34.17,10.8800004 l 7.14,13.09 c 7.31,-4.41999997 15.13,-8.16 23.46,-8.16 11.22,0 14.96,7.48 15.13,16.3199996 -34.17,3.74 -49.13,13.09 -49.13,30.94 z m 19.04,-1.53 c 0,-8.33 7.48,-14.28 30.09,-17.17 l 0,18.7 c -6.12,5.78 -11.39,9.18 -18.19,9.18 -6.97,0 -11.9,-3.23 -11.9,-10.71 z" />
      <path
         id="path4171"
         style="fill:#4d4d4d;fill-opacity:1"
         d="m 312.79535,56.284565 c 8.16,6.63 20.23,11.56 31.62,11.56 21.08,0 32.47,-11.56 32.47,-25.84 0,-15.64 -12.58,-21.08 -23.97,-25.33 -9.01,-3.23 -17.34,-5.78 -17.34,-12.4099996 0,-5.27 3.91,-9.18 12.24,-9.18 6.63,0 12.58,2.89 18.36,7.14 l 9.01,-11.9 c -6.8,-5.2700004 -16.15,-10.0300004 -27.71,-10.0300004 -18.7,0 -30.43,10.3700004 -30.43,24.9900004 0,13.9399996 12.41,20.2299996 23.46,24.3099996 8.84,3.4 17.85,6.46 17.85,13.43 0,5.78 -4.25,10.03 -13.26,10.03 -8.5,0 -15.64,-3.57 -23.12,-9.35 l -9.18,12.58 z" />
      <path
         id="path4173"
         style="fill:#4d4d4d;fill-opacity:1"
         d="m 397.39425,37.584565 c 0,18.02 7.14,30.26 26.52,30.26 6.63,0 12.41,-1.53 17,-3.06 l -3.4,-14.45 c -2.38,1.02 -5.78,1.87 -8.67,1.87 -7.99,0 -11.73,-4.76 -11.73,-14.62 l 0,-39.7799996 21.25,0 0,-15.4700004 -21.25,0 0,-22.78 -16.32,0 -2.38,22.78 -12.92,0.85 0,14.6200004 11.9,0 0,39.7799996 z" />
      <path
         id="path4175"
         style="fill:#4d4d4d;fill-opacity:1"
         d="m 455.93003,65.804565 19.55,0 0,-51 c 5.1,-12.5799996 13.09,-17.1699996 19.72,-17.1699996 3.57,0 5.78,0.51 8.67,1.36 l 3.4,-17.0000004 c -2.55,-1.19 -5.27,-1.7 -9.52,-1.7 -8.84,0 -17.68,5.95 -23.63,16.8300004 l -0.68,0 -1.36,-14.7900004 -16.15,0 0,83.47 z" />
      <path
         id="path4177"
         style="fill:#4d4d4d;fill-opacity:1"
         d="m 512.24785,24.154565 c 0,27.71 18.87,43.69 39.61,43.69 20.91,0 39.78,-15.98 39.78,-43.69 0,-27.8799996 -18.87,-43.86 -39.78,-43.86 -20.74,0 -39.61,15.9800004 -39.61,43.86 z m 20.06,0 c 0,-16.8299996 7.31,-27.8799996 19.55,-27.8799996 12.24,0 19.72,11.05 19.72,27.8799996 0,16.66 -7.48,27.71 -19.72,27.71 -12.24,0 -19.55,-11.05 -19.55,-27.71 z" />
      <path
         id="path4179"
         style="fill:#ff5000;fill-opacity:1"
         d="m 621.69863,57.814565 c 8.5,6.29 16.83,10.03 24.48,10.03 19.21,0 36.04,-16.32 36.04,-44.03 0,-25.3299996 -10.88,-41.65 -32.64,-41.65 -10.03,0 -19.72,5.95 -27.71,12.2400004 l -0.51,0 -0.68,-10.2000004 -6.46,0 0,118.490005 7.48,0 0,-29.750005 0,-15.13 z m 0,-7.14 0,-48.4499996 c 9.86,-8.67 18.53,-13.4300004 26.69,-13.4300004 18.7,0 25.84,14.9600004 25.84,35.02 0,22.1 -11.9,37.4 -28.39,37.4 -6.29,0 -14.79,-2.89 -24.14,-10.54 z" />
      <path
         id="path4181"
         style="fill:#ff5000;fill-opacity:1"
         d="m 696.99535,94.704565 -1.7,6.630005 c 2.21,1.02 5.27,1.7 8.33,1.7 14.62,0 22.78,-13.430005 27.37,-27.030005 l 32.3,-91.8 -7.65,0 -17.51,51.34 c -2.21,6.8 -4.93,15.64 -7.48,22.78 l -0.68,0 c -3.06,-7.14 -6.29,-15.98 -8.84,-22.78 l -19.72,-51.34 -8.16,0 33.49,83.13 -2.21,7.14 c -4.08,12.41 -10.88,21.59 -20.91,21.59 -2.38,0 -4.93,-0.68 -6.63,-1.36 z" />
    </g>
    <g
       id="text3858"
       style="line-height:125%">
      <path
         id="path4184"
         style="fill:#4d4d4d;fill-opacity:1"
         d="m 238.5584,128.98857 1.488,-4.8 c 1.152,-3.504 2.16,-6.96 3.12,-10.608 l 0.192,0 c 1.008,3.648 2.016,7.104 3.168,10.608 l 1.488,4.8 -9.456,0 z m 13.44,12.816 4.272,0 -10.656,-31.488 -4.512,0 -10.656,31.488 4.08,0 3.024,-9.6 11.472,0 2.976,9.6 z" />
      <path
         id="path4186"
         style="fill:#4d4d4d;fill-opacity:1"
         d="m 268.6109,126.06057 c 0,10.272 5.856,16.32 13.776,16.32 4.032,0 7.104,-1.68 9.6,-4.56 l -2.256,-2.448 c -2.016,2.256 -4.224,3.504 -7.248,3.504 -5.952,0 -9.744,-4.992 -9.744,-12.912 0,-7.824 3.936,-12.72 9.936,-12.72 2.64,0 4.656,1.152 6.288,2.928 l 2.256,-2.544 c -1.824,-2.064 -4.8,-3.888 -8.592,-3.888 -8.064,0 -14.016,6.192 -14.016,16.32 z" />
      <path
         id="path4188"
         style="fill:#4d4d4d;fill-opacity:1"
         d="m 295.6979,130.18857 c 0,7.728 5.088,12.192 10.8,12.192 5.712,0 10.8,-4.464 10.8,-12.192 0,-7.824 -5.088,-12.288 -10.8,-12.288 -5.712,0 -10.8,4.464 -10.8,12.288 z m 4.08,0 c 0,-5.376 2.736,-9.024 6.72,-9.024 4.032,0 6.72,3.648 6.72,9.024 0,5.328 -2.688,8.928 -6.72,8.928 -3.984,0 -6.72,-3.6 -6.72,-8.928 z" />
      <path
         id="path4190"
         style="fill:#4d4d4d;fill-opacity:1"
         d="m 323.4884,141.80457 3.936,0 0,-16.896 c 2.16,-2.4 4.128,-3.6 5.856,-3.6 2.976,0 4.368,1.872 4.368,6.24 l 0,14.256 3.936,0 0,-16.896 c 2.16,-2.4 4.032,-3.6 5.856,-3.6 2.928,0 4.32,1.872 4.32,6.24 l 0,14.256 3.936,0 0,-14.784 c 0,-5.952 -2.304,-9.12 -7.104,-9.12 -2.832,0 -5.232,1.824 -7.68,4.464 -0.96,-2.784 -2.88,-4.464 -6.432,-4.464 -2.784,0 -5.232,1.728 -7.248,3.936 l -0.144,0 -0.336,-3.36 -3.264,0 0,23.328 z" />
      <path
         id="path4192"
         style="fill:#4d4d4d;fill-opacity:1"
         d="m 363.2384,141.80457 3.936,0 0,-16.896 c 2.16,-2.4 4.128,-3.6 5.856,-3.6 2.976,0 4.368,1.872 4.368,6.24 l 0,14.256 3.936,0 0,-16.896 c 2.16,-2.4 4.032,-3.6 5.856,-3.6 2.928,0 4.32,1.872 4.32,6.24 l 0,14.256 3.936,0 0,-14.784 c 0,-5.952 -2.304,-9.12 -7.104,-9.12 -2.832,0 -5.232,1.824 -7.68,4.464 -0.96,-2.784 -2.88,-4.464 -6.432,-4.464 -2.784,0 -5.232,1.728 -7.248,3.936 l -0.144,0 -0.336,-3.36 -3.264,0 0,23.328 z" />
      <path
         id="path4194"
         style="fill:#4d4d4d;fill-opacity:1"
         d="m 402.6524,133.26057 c 0,5.952 2.208,9.12 7.152,9.12 3.216,0 5.52,-1.68 7.68,-4.224 l 0.144,0 0.336,3.648 3.264,0 0,-23.328 -3.936,0 0,16.56 c -2.208,2.736 -3.888,3.936 -6.288,3.936 -3.072,0 -4.368,-1.872 -4.368,-6.24 l 0,-14.256 -3.984,0 0,14.784 z" />
      <path
         id="path4196"
         style="fill:#4d4d4d;fill-opacity:1"
         d="m 429.14465,141.80457 3.936,0 0,-16.896 c 2.352,-2.352 3.984,-3.6 6.384,-3.6 3.072,0 4.416,1.872 4.416,6.24 l 0,14.256 3.936,0 0,-14.784 c 0,-5.952 -2.208,-9.12 -7.104,-9.12 -3.216,0 -5.616,1.728 -7.824,3.936 l -0.144,0 -0.336,-3.36 -3.264,0 0,23.328 z" />
      <path
         id="path4198"
         style="fill:#4d4d4d;fill-opacity:1"
         d="m 457.41065,113.67657 c 1.536,0 2.736,-1.056 2.736,-2.544 0,-1.536 -1.2,-2.544 -2.736,-2.544 -1.536,0 -2.736,1.008 -2.736,2.544 0,1.488 1.2,2.544 2.736,2.544 z m -2.016,28.128 3.936,0 0,-23.328 -3.936,0 0,23.328 z" />
      <path
         id="path4200"
         style="fill:#4d4d4d;fill-opacity:1"
         d="m 467.87915,134.60457 c 0,4.608 1.68,7.776 6.672,7.776 1.44,0 3.024,-0.432 4.32,-0.864 l -0.768,-2.976 c -0.768,0.288 -1.824,0.624 -2.64,0.624 -2.688,0 -3.6,-1.632 -3.6,-4.512 l 0,-12.96 6.288,0 0,-3.216 -6.288,0 0,-6.528 -3.312,0 -0.48,6.528 -3.648,0.24 0,2.976 3.456,0 0,12.912 z" />
      <path
         id="path4202"
         style="fill:#4d4d4d;fill-opacity:1"
         d="m 481.8419,148.23657 -0.768,3.12 c 0.768,0.288 1.68,0.48 2.736,0.48 4.704,0 7.104,-3.504 8.736,-8.112 l 8.784,-25.248 -3.84,0 -4.176,12.912 c -0.624,2.064 -1.296,4.464 -1.968,6.576 l -0.192,0 c -0.72,-2.16 -1.536,-4.56 -2.256,-6.576 l -4.752,-12.912 -4.08,0 9.36,23.376 -0.528,1.728 c -0.96,2.88 -2.64,4.992 -5.28,4.992 -0.576,0 -1.296,-0.192 -1.776,-0.336 z" />
      <path
         id="path4204"
         style="fill:#4d4d4d;fill-opacity:1"
         d="m 515.8724,141.80457 3.984,0 0,-12.48 5.664,0 c 6.912,0 11.616,-3.12 11.616,-9.744 0,-6.912 -4.656,-9.264 -11.616,-9.264 l -9.648,0 0,31.488 z m 3.984,-15.744 0,-12.528 5.184,0 c 5.424,0 8.112,1.488 8.112,6.048 0,4.464 -2.64,6.48 -8.112,6.48 l -5.184,0 z" />
      <path
         id="path4206"
         style="fill:#4d4d4d;fill-opacity:1"
         d="m 541.56065,148.23657 -0.768,3.12 c 0.768,0.288 1.68,0.48 2.736,0.48 4.704,0 7.104,-3.504 8.736,-8.112 l 8.784,-25.248 -3.84,0 -4.176,12.912 c -0.624,2.064 -1.296,4.464 -1.968,6.576 l -0.192,0 c -0.72,-2.16 -1.536,-4.56 -2.256,-6.576 l -4.752,-12.912 -4.08,0 9.36,23.376 -0.528,1.728 c -0.96,2.88 -2.64,4.992 -5.28,4.992 -0.576,0 -1.296,-0.192 -1.776,-0.336 z" />
      <path
         id="path4208"
         style="fill:#4d4d4d;fill-opacity:1"
         d="m 566.2229,134.60457 c 0,4.608 1.68,7.776 6.672,7.776 1.44,0 3.024,-0.432 4.32,-0.864 l -0.768,-2.976 c -0.768,0.288 -1.824,0.624 -2.64,0.624 -2.688,0 -3.6,-1.632 -3.6,-4.512 l 0,-12.96 6.288,0 0,-3.216 -6.288,0 0,-6.528 -3.312,0 -0.48,6.528 -3.648,0.24 0,2.976 3.456,0 0,12.912 z" />
      <path
         id="path4210"
         style="fill:#4d4d4d;fill-opacity:1"
         d="m 581.76965,141.80457 3.936,0 0,-16.896 c 2.352,-2.352 3.984,-3.6 6.384,-3.6 3.072,0 4.416,1.872 4.416,6.24 l 0,14.256 3.936,0 0,-14.784 c 0,-5.952 -2.208,-9.12 -7.104,-9.12 -3.216,0 -5.568,1.728 -7.776,3.84 l 0.144,-4.8 0,-9.312 -3.936,0 0,34.176 z" />
      <path
         id="path4212"
         style="fill:#4d4d4d;fill-opacity:1"
         d="m 606.1979,130.18857 c 0,7.728 5.088,12.192 10.8,12.192 5.712,0 10.8,-4.464 10.8,-12.192 0,-7.824 -5.088,-12.288 -10.8,-12.288 -5.712,0 -10.8,4.464 -10.8,12.288 z m 4.08,0 c 0,-5.376 2.736,-9.024 6.72,-9.024 4.032,0 6.72,3.648 6.72,9.024 0,5.328 -2.688,8.928 -6.72,8.928 -3.984,0 -6.72,-3.6 -6.72,-8.928 z" />
      <path
         id="path4214"
         style="fill:#4d4d4d;fill-opacity:1"
         d="m 633.9884,141.80457 3.936,0 0,-16.896 c 2.352,-2.352 3.984,-3.6 6.384,-3.6 3.072,0 4.416,1.872 4.416,6.24 l 0,14.256 3.936,0 0,-14.784 c 0,-5.952 -2.208,-9.12 -7.104,-9.12 -3.216,0 -5.616,1.728 -7.824,3.936 l -0.144,0 -0.336,-3.36 -3.264,0 0,23.328 z" />
      <path
         id="path4216"
         style="fill:#4d4d4d;fill-opacity:1"
         d="m 670.27865,141.80457 17.76,0 0,-3.408 -13.776,0 0,-28.08 -3.984,0 0,31.488 z" />
      <path
         id="path4218"
         style="fill:#4d4d4d;fill-opacity:1"
         d="m 695.2544,113.67657 c 1.536,0 2.736,-1.056 2.736,-2.544 0,-1.536 -1.2,-2.544 -2.736,-2.544 -1.536,0 -2.736,1.008 -2.736,2.544 0,1.488 1.2,2.544 2.736,2.544 z m -2.016,28.128 3.936,0 0,-23.328 -3.936,0 0,23.328 z" />
      <path
         id="path4220"
         style="fill:#4d4d4d;fill-opacity:1"
         d="m 705.0509,141.80457 3.168,0 0.336,-2.304 0.144,0 c 2.064,1.824 4.512,2.88 6.672,2.88 5.328,0 10.08,-4.656 10.08,-12.624 0,-7.2 -3.216,-11.856 -9.264,-11.856 -2.592,0 -5.184,1.392 -7.296,3.264 l 0.096,-4.224 0,-9.312 -3.936,0 0,34.176 z m 3.936,-5.184 0,-12.24 c 2.208,-2.064 4.272,-3.168 6.24,-3.168 4.416,0 6.144,3.456 6.144,8.592 0,5.76 -2.832,9.264 -6.672,9.264 -1.536,0 -3.648,-0.672 -5.712,-2.448 z" />
      <path
         id="path4222"
         style="fill:#4d4d4d;fill-opacity:1"
         d="m 731.6759,141.80457 3.936,0 0,-14.976 c 1.584,-3.936 3.936,-5.376 5.904,-5.376 0.96,0 1.488,0.144 2.256,0.384 l 0.768,-3.456 c -0.768,-0.336 -1.488,-0.48 -2.496,-0.48 -2.64,0 -5.04,1.872 -6.624,4.8 l -0.144,0 -0.336,-4.224 -3.264,0 0,23.328 z" />
      <path
         id="path4224"
         style="fill:#4d4d4d;fill-opacity:1"
         d="m 745.99265,135.75657 c 0,4.176 2.928,6.624 6.864,6.624 2.88,0 5.472,-1.536 7.728,-3.36 l 0.096,0 0.336,2.784 3.264,0 0,-14.304 c 0,-5.808 -2.4,-9.6 -8.112,-9.6 -3.744,0 -7.008,1.632 -9.168,3.024 l 1.584,2.736 c 1.824,-1.248 4.224,-2.496 6.96,-2.496 3.792,0 4.8,2.88 4.8,5.856 -9.936,1.104 -14.352,3.648 -14.352,8.736 z m 3.888,-0.288 c 0,-2.976 2.64,-4.896 10.464,-5.856 l 0,6.48 c -2.256,2.016 -4.128,3.12 -6.384,3.12 -2.304,0 -4.08,-1.104 -4.08,-3.744 z" />
      <path
         id="path4226"
         style="fill:#4d4d4d;fill-opacity:1"
         d="m 771.70715,141.80457 3.936,0 0,-14.976 c 1.584,-3.936 3.936,-5.376 5.904,-5.376 0.96,0 1.488,0.144 2.256,0.384 l 0.768,-3.456 c -0.768,-0.336 -1.488,-0.48 -2.496,-0.48 -2.64,0 -5.04,1.872 -6.624,4.8 l -0.144,0 -0.336,-4.224 -3.264,0 0,23.328 z" />
      <path
         id="path4228"
         style="fill:#4d4d4d;fill-opacity:1"
         d="m 787.74815,148.23657 -0.768,3.12 c 0.768,0.288 1.68,0.48 2.736,0.48 4.704,0 7.104,-3.504 8.736,-8.112 l 8.784,-25.248 -3.84,0 -4.176,12.912 c -0.624,2.064 -1.296,4.464 -1.968,6.576 l -0.192,0 c -0.72,-2.16 -1.536,-4.56 -2.256,-6.576 l -4.752,-12.912 -4.08,0 9.36,23.376 -0.528,1.728 c -0.96,2.88 -2.64,4.992 -5.28,4.992 -0.576,0 -1.296,-0.192 -1.776,-0.336 z" />
      <path
         id="path4230"
         style="fill:#4d4d4d;fill-opacity:1"
         d="m 832.77065,107.82057 c -1.056,-0.432 -2.448,-0.768 -3.888,-0.768 -4.656,0 -6.816,2.976 -6.816,7.728 l 0,3.696 -3.168,0.24 0,2.976 3.168,0 0,20.112 3.936,0 0,-20.112 4.944,0 0,-3.216 -4.944,0 0,-3.696 c 0,-2.976 1.056,-4.512 3.264,-4.512 0.864,0 1.776,0.192 2.64,0.576 l 0.864,-3.024 z" />
      <path
         id="path4232"
         style="fill:#4d4d4d;fill-opacity:1"
         d="m 833.2604,130.18857 c 0,7.728 5.088,12.192 10.8,12.192 5.712,0 10.8,-4.464 10.8,-12.192 0,-7.824 -5.088,-12.288 -10.8,-12.288 -5.712,0 -10.8,4.464 -10.8,12.288 z m 4.08,0 c 0,-5.376 2.736,-9.024 6.72,-9.024 4.032,0 6.72,3.648 6.72,9.024 0,5.328 -2.688,8.928 -6.72,8.928 -3.984,0 -6.72,-3.6 -6.72,-8.928 z" />
      <path
         id="path4234"
         style="fill:#4d4d4d;fill-opacity:1"
         d="m 861.0509,141.80457 3.936,0 0,-14.976 c 1.584,-3.936 3.936,-5.376 5.904,-5.376 0.96,0 1.488,0.144 2.256,0.384 l 0.768,-3.456 c -0.768,-0.336 -1.488,-0.48 -2.496,-0.48 -2.64,0 -5.04,1.872 -6.624,4.8 l -0.144,0 -0.336,-4.224 -3.264,0 0,23.328 z" />
      <path
         id="path4236"
         style="fill:#4d4d4d;fill-opacity:1"
         d="m 891.71465,128.98857 1.488,-4.8 c 1.152,-3.504 2.16,-6.96 3.12,-10.608 l 0.192,0 c 1.008,3.648 2.016,7.104 3.168,10.608 l 1.488,4.8 -9.456,0 z m 13.44,12.816 4.272,0 -10.656,-31.488 -4.512,0 -10.656,31.488 4.08,0 3.024,-9.6 11.472,0 2.976,9.6 z" />
      <path
         id="path4238"
         style="fill:#4d4d4d;fill-opacity:1"
         d="m 910.9589,139.16457 c 2.208,1.824 5.376,3.216 8.688,3.216 5.52,0 8.544,-3.168 8.544,-6.96 0,-4.416 -3.744,-5.808 -7.104,-7.056 -2.64,-1.008 -5.184,-1.824 -5.184,-4.032 0,-1.776 1.344,-3.36 4.272,-3.36 2.064,0 3.744,0.864 5.328,2.064 l 1.872,-2.496 c -1.776,-1.44 -4.32,-2.64 -7.248,-2.64 -5.04,0 -8.016,2.88 -8.016,6.624 0,3.936 3.648,5.52 6.96,6.72 2.544,0.96 5.328,2.016 5.328,4.416 0,2.016 -1.536,3.648 -4.608,3.648 -2.784,0 -4.848,-1.152 -6.864,-2.784 l -1.968,2.64 z" />
      <path
         id="path4240"
         style="fill:#4d4d4d;fill-opacity:1"
         d="m 934.37915,134.60457 c 0,4.608 1.68,7.776 6.672,7.776 1.44,0 3.024,-0.432 4.32,-0.864 l -0.768,-2.976 c -0.768,0.288 -1.824,0.624 -2.64,0.624 -2.688,0 -3.6,-1.632 -3.6,-4.512 l 0,-12.96 6.288,0 0,-3.216 -6.288,0 0,-6.528 -3.312,0 -0.48,6.528 -3.648,0.24 0,2.976 3.456,0 0,12.912 z" />
      <path
         id="path4242"
         style="fill:#4d4d4d;fill-opacity:1"
         d="m 949.9259,141.80457 3.936,0 0,-14.976 c 1.584,-3.936 3.936,-5.376 5.904,-5.376 0.96,0 1.488,0.144 2.256,0.384 l 0.768,-3.456 c -0.768,-0.336 -1.488,-0.48 -2.496,-0.48 -2.64,0 -5.04,1.872 -6.624,4.8 l -0.144,0 -0.336,-4.224 -3.264,0 0,23.328 z" />
      <path
         id="path4244"
         style="fill:#4d4d4d;fill-opacity:1"
         d="m 964.41665,130.18857 c 0,7.728 5.088,12.192 10.8,12.192 5.712,0 10.8,-4.464 10.8,-12.192 0,-7.824 -5.088,-12.288 -10.8,-12.288 -5.712,0 -10.8,4.464 -10.8,12.288 z m 4.08,0 c 0,-5.376 2.736,-9.024 6.72,-9.024 4.032,0 6.72,3.648 6.72,9.024 0,5.328 -2.688,8.928 -6.72,8.928 -3.984,0 -6.72,-3.6 -6.72,-8.928 z" />
      <path
         id="path4246"
         style="fill:#4d4d4d;fill-opacity:1"
         d="m 992.20715,141.80457 3.936,0 0,-16.896 c 2.352,-2.352 3.98395,-3.6 6.38395,-3.6 3.072,0 4.416,1.872 4.416,6.24 l 0,14.256 3.936,0 0,-14.784 c 0,-5.952 -2.208,-9.12 -7.104,-9.12 -3.216,0 -5.61595,1.728 -7.82395,3.936 l -0.144,0 -0.336,-3.36 -3.264,0 0,23.328 z" />
      <path
         id="path4248"
         style="fill:#4d4d4d;fill-opacity:1"
         d="m 1016.7291,130.18857 c 0,7.728 5.088,12.192 10.8,12.192 5.712,0 10.8,-4.464 10.8,-12.192 0,-7.824 -5.088,-12.288 -10.8,-12.288 -5.712,0 -10.8,4.464 -10.8,12.288 z m 4.08,0 c 0,-5.376 2.736,-9.024 6.72,-9.024 4.032,0 6.72,3.648 6.72,9.024 0,5.328 -2.688,8.928 -6.72,8.928 -3.984,0 -6.72,-3.6 -6.72,-8.928 z" />
      <path
         id="path4250"
         style="fill:#4d4d4d;fill-opacity:1"
         d="m 1044.5196,141.80457 3.936,0 0,-16.896 c 2.16,-2.4 4.128,-3.6 5.856,-3.6 2.976,0 4.368,1.872 4.368,6.24 l 0,14.256 3.936,0 0,-16.896 c 2.16,-2.4 4.032,-3.6 5.856,-3.6 2.928,0 4.32,1.872 4.32,6.24 l 0,14.256 3.936,0 0,-14.784 c 0,-5.952 -2.304,-9.12 -7.104,-9.12 -2.832,0 -5.232,1.824 -7.68,4.464 -0.96,-2.784 -2.88,-4.464 -6.432,-4.464 -2.784,0 -5.232,1.728 -7.248,3.936 l -0.144,0 -0.336,-3.36 -3.264,0 0,23.328 z" />
      <path
         id="path4252"
         style="fill:#4d4d4d;fill-opacity:1"
         d="m 1082.6856,148.23657 -0.768,3.12 c 0.768,0.288 1.68,0.48 2.736,0.48 4.704,0 7.104,-3.504 8.736,-8.112 l 8.784,-25.248 -3.84,0 -4.176,12.912 c -0.624,2.064 -1.296,4.464 -1.968,6.576 l -0.192,0 c -0.72,-2.16 -1.536,-4.56 -2.256,-6.576 l -4.752,-12.912 -4.08,0 9.36,23.376 -0.528,1.728 c -0.96,2.88 -2.64,4.992 -5.28,4.992 -0.576,0 -1.296,-0.192 -1.776,-0.336 z" />
    </g>
    <path
       clip-path="none"
       mask="none"
       transform="matrix(1.0651076,-0.90408718,0.89013474,1.0731629,-250.16148,-67.548145)"
       d="m 221.23922,233.12846 a 80.322945,68.372307 0 0 1 -80.32294,68.37231 80.322945,68.372307 0 0 1 -80.32295,-68.37231 80.322945,68.372307 0 0 1 80.32295,-68.3723 80.322945,68.372307 0 0 1 80.32294,68.3723 z"
       id="path3837"
       style="fill:url(#linearGradient3798);fill-opacity:1;fill-rule:nonzero;stroke:none;stroke-opacity:1" />
    <path
       transform="matrix(-0.71212781,-0.99456325,-0.9777811,0.72852659,474.31246,145.67479)"
       d="m 238.396,198.78328 c 32.61949,7.06756 15.40308,37.20961 -8.24653,38.06088 -26.00022,0.93589 -44.08994,-24.61831 -41.97511,-48.94224 2.67817,-30.80329 32.53302,-51.80129 62.38812,-48.26147"
       id="path5413"
       style="fill:none;stroke:#ffffff;stroke-width:14.33045673;stroke-linecap:butt;stroke-linejoin:miter;stroke-miterlimit:4;stroke-opacity:1;stroke-dasharray:none" />
    <path
       transform="matrix(1.0512298,0.82294962,-0.97239782,0.94168108,304.90482,-361.44933)"
       d="m 144.4518,337.67926 a 22.223356,12.626906 0 0 1 -22.22335,12.62691 22.223356,12.626906 0 0 1 -22.22336,-12.62691 22.223356,12.626906 0 0 1 22.22336,-12.62691 22.223356,12.626906 0 0 1 22.22335,12.62691 z"
       id="path3819"
       style="fill:#ffffff;fill-opacity:1;stroke:none" />
    <path
       id="path3853"
       d="m 136.88413,-13.10567 13.09858,22.1959915 20.1541,-20.0243955 -25.57713,-10.690029 z"
       style="fill:#ffffff;fill-opacity:1;stroke:#ffffff;stroke-width:2.36031604;stroke-linecap:round;stroke-linejoin:round;stroke-miterlimit:4;stroke-opacity:1;stroke-dasharray:none" />
    <g
       transform="matrix(0.95039189,0,0,0.93299787,-2.487134,-0.56516029)"
       id="g3804">
      <path
         style="fill:none;stroke:#ffffff;stroke-width:3.72635746;stroke-linecap:butt;stroke-linejoin:miter;stroke-miterlimit:4;stroke-opacity:1;stroke-dasharray:none"
         d="m 142.07904,-24.83606 -2.29208,-13.70422 0.18559,0.452199 0,0"
         id="path3855-7" />
      <path
         style="fill:none;stroke:#ffffff;stroke-width:4.02542162;stroke-linecap:butt;stroke-linejoin:miter;stroke-miterlimit:4;stroke-opacity:1;stroke-dasharray:none"
         d="m 127.81295,-26.11257 15.12343,0.663566 -0.4755,0.06597 0,0"
         id="path3855-7-0" />
      <path
         style="fill:none;stroke:#ffffff;stroke-width:4.06302309;stroke-linecap:butt;stroke-linejoin:miter;stroke-miterlimit:4;stroke-opacity:1;stroke-dasharray:none"
         d="m 150.77669,-18.240009 -9.57586,-7.57806 0.46343,0.302121 0,0"
         id="path3855-7-05" />
    </g>
    <path
       id="path3942"
       d="m 67.476992,131.73602 c 3.410653,2.96251 14.804165,7.71706 18.766169,12.74152 4.041356,5.12504 3.407665,10.98393 3.371624,14.32634"
       style="fill:none;stroke:#ffffff;stroke-width:17.45736313;stroke-linecap:butt;stroke-linejoin:miter;stroke-miterlimit:4;stroke-opacity:1;stroke-dasharray:none" />
    <path
       transform="matrix(0.95949998,0.82835015,0.79893463,-0.95307413,-285.3304,56.888018)"
       d="m 238.396,198.78328 c 32.61946,7.06755 15.40307,37.20957 -8.24652,38.06085 -26.0002,0.93588 -44.0899,-24.61829 -41.97507,-48.9422 2.70006,-31.05511 32.97695,-52.07076 63.01891,-48.18321 1.11735,0.14459 2.2306,0.32088 3.33799,0.52843"
       id="path2987-5"
       style="fill:none;stroke:#ffffff;stroke-width:13.93870544;stroke-linecap:butt;stroke-linejoin:miter;stroke-miterlimit:4;stroke-opacity:1;stroke-dasharray:none" />
  </g>
</svg>
